<svg width="42" height="22" viewBox="0 0 42 22" fill="none" xmlns="http://www.w3.org/2000/svg">
<path d="M21.6303 17.5571C24.6186 16.9169 26.9117 13.231 26.9117 8.77956C26.9117 4.32809 24.6186 0.642238 21.6303 0.00335709C21.5227 -0.019922 21.424 0.0809539 21.424 0.210282V17.3501" fill="#3D3017"/>
<path d="M20.3337 17.3501V0.210285C20.3337 0.0796637 20.2349 -0.019919 20.1274 0.0033601C17.1391 0.643534 14.8459 4.32938 14.8459 8.78086C14.8459 13.2323 17.1378 16.9182 20.1274 17.5584" fill="#3D3017"/>
<path d="M31.2466 21.6723C34.0999 22.7936 37.9471 20.9597 40.2603 17.2053C42.5734 13.4509 42.5546 9.06798 40.3653 6.86811C40.2865 6.78922 40.1515 6.81896 40.084 6.92889L31.1803 21.3839" fill="#3D3017"/>
<path d="M30.2613 20.7773L39.165 6.32234C39.2325 6.21241 39.2012 6.07273 39.0987 6.03264C36.2454 4.91137 32.3981 6.74524 30.085 10.4996C27.7719 14.254 27.7907 18.637 29.98 20.8368" fill="#3D3017"/>
<path d="M10.7549 21.6723C7.9016 22.7936 4.05432 20.9597 1.7412 17.2053C-0.571923 13.4509 -0.553168 9.06796 1.63617 6.86809C1.71494 6.7892 1.84998 6.81895 1.91749 6.92887L10.8211 21.3839" fill="#3D3017"/>
<path d="M11.7401 20.7773L2.83649 6.32233C2.76897 6.2124 2.80023 6.07272 2.90276 6.03263C5.75602 4.91136 9.6033 6.74523 11.9164 10.5009C14.2295 14.2553 14.2108 18.6382 12.0214 20.8381" fill="#3D3017"/>
</svg>
