<svg width="87" height="56" viewBox="0 0 87 56" fill="none" xmlns="http://www.w3.org/2000/svg">
<path d="M0.488308 0.499998H6.43831V22.83H21.4883V25H0.488308V0.499998ZM31.4116 25.35C28.915 25.35 27.0366 24.895 25.7766 23.985C24.54 23.0517 23.9216 21.745 23.9216 20.065C23.9216 18.2917 24.6566 16.9267 26.1266 15.97C27.5966 15.0133 29.72 14.535 32.4966 14.535H37.0816V13.38C37.0816 12.0733 36.72 11.07 35.9966 10.37C35.2733 9.67 34.235 9.32 32.8816 9.32C31.5516 9.32 30.49 9.65833 29.6966 10.335C28.9266 11.0117 28.4483 12.0033 28.2616 13.31H24.4116C24.6683 11.42 25.5666 9.985 27.1066 9.005C28.6466 8.00167 30.735 7.5 33.3716 7.5C36.265 7.5 38.47 8.03667 39.9866 9.11C41.5033 10.1833 42.2616 11.735 42.2616 13.765V19.295C42.2616 21.4183 42.4366 23.32 42.7866 25H37.9566C37.7233 24.1133 37.56 23.3317 37.4666 22.655C36.79 23.6117 35.915 24.3 34.8416 24.72C33.7916 25.14 32.6483 25.35 31.4116 25.35ZM32.4966 23.6C33.9433 23.6 35.0633 23.215 35.8566 22.445C36.6733 21.6517 37.0816 20.6017 37.0816 19.295V16.355H33.9666C32.4033 16.355 31.2016 16.6817 30.3616 17.335C29.5216 17.965 29.1016 18.8633 29.1016 20.03C29.1016 21.22 29.3816 22.1183 29.9416 22.725C30.525 23.3083 31.3766 23.6 32.4966 23.6ZM45.107 7.85H50.427L56.832 20.17L63.202 7.85H66.317L57.567 25.35H54.382L45.107 7.85ZM74.5464 25.35C72.0497 25.35 70.1714 24.895 68.9114 23.985C67.6747 23.0517 67.0564 21.745 67.0564 20.065C67.0564 18.2917 67.7914 16.9267 69.2614 15.97C70.7314 15.0133 72.8547 14.535 75.6314 14.535H80.2164V13.38C80.2164 12.0733 79.8547 11.07 79.1314 10.37C78.4081 9.67 77.3697 9.32 76.0164 9.32C74.6864 9.32 73.6247 9.65833 72.8314 10.335C72.0614 11.0117 71.5831 12.0033 71.3964 13.31H67.5464C67.8031 11.42 68.7014 9.985 70.2414 9.005C71.7814 8.00167 73.8697 7.5 76.5064 7.5C79.3997 7.5 81.6047 8.03667 83.1214 9.11C84.6381 10.1833 85.3964 11.735 85.3964 13.765V19.295C85.3964 21.4183 85.5714 23.32 85.9214 25H81.0914C80.8581 24.1133 80.6947 23.3317 80.6014 22.655C79.9247 23.6117 79.0497 24.3 77.9764 24.72C76.9264 25.14 75.7831 25.35 74.5464 25.35ZM75.6314 23.6C77.0781 23.6 78.1981 23.215 78.9914 22.445C79.8081 21.6517 80.2164 20.6017 80.2164 19.295V16.355H77.1014C75.5381 16.355 74.3364 16.6817 73.4964 17.335C72.6564 17.965 72.2364 18.8633 72.2364 20.03C72.2364 21.22 72.5164 22.1183 73.0764 22.725C73.6597 23.3083 74.5114 23.6 75.6314 23.6ZM9.87419 55L5.16419 49.1C5.04419 49.1067 4.86085 49.11 4.61419 49.11C3.95419 49.11 3.18085 49.0767 2.29419 49.01V55H0.0741865V40.55C1.58752 40.21 3.15085 40.04 4.76419 40.04C6.95752 40.04 8.58419 40.4 9.64419 41.12C10.7042 41.8333 11.2342 42.9733 11.2342 44.54C11.2342 45.6733 10.9142 46.6 10.2742 47.32C9.64085 48.04 8.70085 48.5433 7.45419 48.83L12.4242 55H9.87419ZM2.29419 47.31C2.74752 47.3567 3.14419 47.39 3.48419 47.41C3.83085 47.43 4.23752 47.44 4.70419 47.44C6.23752 47.44 7.35419 47.21 8.05419 46.75C8.75419 46.2833 9.10419 45.5567 9.10419 44.57C9.10419 43.87 8.95752 43.31 8.66419 42.89C8.37752 42.47 7.92752 42.1667 7.31419 41.98C6.70752 41.7933 5.90752 41.7 4.91419 41.7C4.41419 41.7 3.96419 41.72 3.56419 41.76C3.16419 41.8 2.74085 41.86 2.29419 41.94V47.31ZM18.8367 55.2C17.7234 55.2 16.7534 54.99 15.9267 54.57C15.1067 54.15 14.47 53.52 14.0167 52.68C13.57 51.84 13.3467 50.8 13.3467 49.56C13.3467 48.3333 13.5667 47.3033 14.0067 46.47C14.4534 45.63 15.0867 45 15.9067 44.58C16.7267 44.16 17.7034 43.95 18.8367 43.95C20.57 43.95 21.9167 44.4233 22.8767 45.37C23.8367 46.31 24.3167 47.7067 24.3167 49.56C24.3167 50.78 24.09 51.8133 23.6367 52.66C23.1834 53.5 22.5434 54.1333 21.7167 54.56C20.8967 54.9867 19.9367 55.2 18.8367 55.2ZM18.8367 53.44C21.01 53.44 22.0967 52.15 22.0967 49.57C22.0967 48.23 21.8167 47.2533 21.2567 46.64C20.6967 46.02 19.89 45.71 18.8367 45.71C17.7834 45.71 16.9734 46.0167 16.4067 46.63C15.8467 47.2433 15.5667 48.2167 15.5667 49.55C15.5667 52.1433 16.6567 53.44 18.8367 53.44ZM30.8736 43.95C32.0202 43.95 32.9536 44.0867 33.6736 44.36C34.3936 44.6267 34.9336 45.0733 35.2936 45.7C35.6536 46.3267 35.8336 47.18 35.8336 48.26V55H33.9736L33.8136 53.83H33.6936C33.2869 54.2567 32.7736 54.59 32.1536 54.83C31.5336 55.0633 30.8736 55.18 30.1736 55.18C29.3736 55.18 28.6902 55.0567 28.1236 54.81C27.5569 54.5567 27.1269 54.2033 26.8336 53.75C26.5402 53.2967 26.3936 52.7633 26.3936 52.15C26.3936 51.1833 26.7536 50.4367 27.4736 49.91C28.2002 49.3767 29.3536 49.04 30.9336 48.9L33.6536 48.63V48.11C33.6536 47.47 33.5436 46.97 33.3236 46.61C33.1036 46.25 32.7702 45.9967 32.3236 45.85C31.8836 45.7033 31.2969 45.63 30.5636 45.63C30.0569 45.63 29.5069 45.6733 28.9136 45.76C28.3269 45.8467 27.7636 45.9767 27.2236 46.15V44.49C27.7569 44.3167 28.3469 44.1833 28.9936 44.09C29.6469 43.9967 30.2736 43.95 30.8736 43.95ZM30.7636 53.64C31.2969 53.64 31.8136 53.5467 32.3136 53.36C32.8136 53.1667 33.2602 52.88 33.6536 52.5V49.95L31.1036 50.2C30.2169 50.3 29.5836 50.4933 29.2036 50.78C28.8236 51.06 28.6336 51.46 28.6336 51.98C28.6336 52.5067 28.8102 52.9167 29.1636 53.21C29.5169 53.4967 30.0502 53.64 30.7636 53.64ZM42.3157 55.2C40.9491 55.2 39.7091 55.04 38.5957 54.72V53.11C39.7891 53.4433 41.0324 53.61 42.3257 53.61C43.3257 53.61 44.0457 53.4767 44.4857 53.21C44.9257 52.9367 45.1457 52.54 45.1457 52.02C45.1457 51.74 45.0957 51.51 44.9957 51.33C44.8957 51.1433 44.7257 50.99 44.4857 50.87C44.2457 50.7433 43.9157 50.6467 43.4957 50.58L41.5657 50.28C40.4457 50.1 39.6357 49.76 39.1357 49.26C38.6424 48.76 38.3957 48.09 38.3957 47.25C38.3957 46.23 38.8157 45.4267 39.6557 44.84C40.5024 44.2467 41.7924 43.95 43.5257 43.95C44.0724 43.95 44.6157 43.9867 45.1557 44.06C45.7024 44.1267 46.2057 44.2267 46.6657 44.36V45.96C45.6524 45.68 44.6091 45.54 43.5357 45.54C42.4357 45.54 41.6591 45.6833 41.2057 45.97C40.7524 46.2567 40.5257 46.6533 40.5257 47.16C40.5257 47.54 40.6424 47.85 40.8757 48.09C41.1091 48.3233 41.5257 48.4933 42.1257 48.6L44.0557 48.9C45.1691 49.0733 45.9857 49.3933 46.5057 49.86C47.0257 50.3267 47.2857 51.0033 47.2857 51.89C47.2857 52.5767 47.0991 53.1667 46.7257 53.66C46.3591 54.1533 45.8024 54.5333 45.0557 54.8C44.3157 55.0667 43.4024 55.2 42.3157 55.2ZM55.0217 53.38C55.235 53.38 55.4517 53.3667 55.6717 53.34C55.8917 53.3133 56.165 53.2667 56.4917 53.2V54.96C55.8117 55.12 55.135 55.2 54.4617 55.2C53.1217 55.2 52.1017 54.8733 51.4017 54.22C50.7017 53.5667 50.3517 52.58 50.3517 51.26V45.91H48.1817V44.12H50.3517L50.7317 40.2H52.5717V44.12H56.3417V45.91H52.5717V50.85C52.5717 51.75 52.7717 52.3967 53.1717 52.79C53.5717 53.1833 54.1884 53.38 55.0217 53.38ZM67.7631 50.22H59.8731C59.9131 51.0067 60.0831 51.6433 60.3831 52.13C60.6831 52.61 61.1331 52.9633 61.7331 53.19C62.3331 53.4167 63.1031 53.53 64.0431 53.53C64.9764 53.53 66.0098 53.3867 67.1431 53.1V54.75C65.9631 55.05 64.8264 55.2 63.7331 55.2C61.7064 55.2 60.1864 54.7433 59.1731 53.83C58.1664 52.91 57.6631 51.4933 57.6631 49.58C57.6631 48.38 57.8664 47.36 58.2731 46.52C58.6798 45.68 59.2664 45.0433 60.0331 44.61C60.8064 44.17 61.7364 43.95 62.8231 43.95C64.4231 43.95 65.6464 44.44 66.4931 45.42C67.3398 46.3933 67.7631 47.8 67.7631 49.64V50.22ZM62.7931 45.42C61.8598 45.42 61.1464 45.7033 60.6531 46.27C60.1598 46.83 59.8964 47.7 59.8631 48.88H65.6731C65.6464 47.7 65.3931 46.83 64.9131 46.27C64.4331 45.7033 63.7264 45.42 62.7931 45.42ZM70.2653 44.12H72.0953L72.2653 45.51H72.3953C72.7886 45.0367 73.2953 44.6667 73.9153 44.4C74.5419 44.1333 75.1953 44 75.8753 44C76.2619 44 76.6253 44.0333 76.9653 44.1V46.09C76.6386 46.03 76.2386 46 75.7653 46C75.1786 46 74.5819 46.1133 73.9753 46.34C73.3686 46.5667 72.8719 46.9033 72.4853 47.35V55H70.2653V44.12ZM81.9837 55.2C80.6171 55.2 79.3771 55.04 78.2637 54.72V53.11C79.4571 53.4433 80.7004 53.61 81.9937 53.61C82.9937 53.61 83.7137 53.4767 84.1537 53.21C84.5937 52.9367 84.8137 52.54 84.8137 52.02C84.8137 51.74 84.7637 51.51 84.6637 51.33C84.5637 51.1433 84.3937 50.99 84.1537 50.87C83.9137 50.7433 83.5837 50.6467 83.1637 50.58L81.2337 50.28C80.1137 50.1 79.3037 49.76 78.8037 49.26C78.3104 48.76 78.0637 48.09 78.0637 47.25C78.0637 46.23 78.4837 45.4267 79.3237 44.84C80.1704 44.2467 81.4604 43.95 83.1937 43.95C83.7404 43.95 84.2837 43.9867 84.8237 44.06C85.3704 44.1267 85.8737 44.2267 86.3337 44.36V45.96C85.3204 45.68 84.2771 45.54 83.2037 45.54C82.1037 45.54 81.3271 45.6833 80.8737 45.97C80.4204 46.2567 80.1937 46.6533 80.1937 47.16C80.1937 47.54 80.3104 47.85 80.5437 48.09C80.7771 48.3233 81.1937 48.4933 81.7937 48.6L83.7237 48.9C84.8371 49.0733 85.6537 49.3933 86.1737 49.86C86.6937 50.3267 86.9537 51.0033 86.9537 51.89C86.9537 52.5767 86.7671 53.1667 86.3937 53.66C86.0271 54.1533 85.4704 54.5333 84.7237 54.8C83.9837 55.0667 83.0704 55.2 81.9837 55.2Z" fill="#3D3017"/>
</svg>
